<?xml version="1.0" standalone="no"?>
<!DOCTYPE svg PUBLIC "-//W3C//DTD SVG 20010904//EN"
 "http://www.w3.org/TR/2001/REC-SVG-20010904/DTD/svg10.dtd">
<svg version="1.0" xmlns="http://www.w3.org/2000/svg"
 width="500.000000pt" height="500.000000pt" viewBox="0 0 500.000000 500.000000"
 preserveAspectRatio="xMidYMid meet">

<g transform="translate(0.000000,500.000000) scale(0.100000,-0.100000)"
fill="#000000" stroke="none">
<path d="M2435 4319 c-86 -9 -241 -40 -325 -65 -86 -25 -51 -25 51 1 167 43
285 58 444 58 287 1 527 -53 784 -174 57 -27 106 -47 108 -45 7 6 -176 91
-277 129 -234 87 -528 123 -785 96z"/>
<path d="M1985 4209 c-22 -10 -29 -16 -15 -13 38 10 87 32 70 32 -8 0 -33 -8
-55 -19z"/>
<path d="M1915 4180 c-3 -6 1 -7 9 -4 18 7 21 14 7 14 -6 0 -13 -4 -16 -10z"/>
<path d="M1870 4160 c-8 -5 -10 -10 -5 -10 6 0 17 5 25 10 8 5 11 10 5 10 -5
0 -17 -5 -25 -10z"/>
<path d="M2707 4064 c-21 -42 -35 -79 -32 -83 4 -3 11 2 16 12 15 26 89 24 96
-3 4 -17 33 -30 33 -16 0 25 -54 166 -63 166 -7 0 -30 -34 -50 -76z m58 -6 c6
-25 5 -28 -19 -28 -29 0 -31 7 -14 45 13 29 23 23 33 -17z"/>
<path d="M1785 4120 c-3 -6 1 -7 9 -4 18 7 21 14 7 14 -6 0 -13 -4 -16 -10z"/>
<path d="M2411 4123 c-23 -5 -23 -7 -17 -65 3 -34 6 -69 6 -79 0 -33 29 -21
32 13 4 43 21 45 54 9 15 -17 31 -31 36 -31 15 0 8 23 -12 45 -18 20 -19 23
-5 35 20 17 19 36 -5 60 -19 19 -39 22 -89 13z m64 -48 c0 -25 -4 -30 -27 -33
-26 -3 -28 -1 -28 33 0 34 2 36 28 33 23 -3 27 -8 27 -33z"/>
<path d="M1705 4079 c-73 -46 -79 -56 -10 -18 65 35 85 49 70 49 -6 0 -32 -14
-60 -31z"/>
<path d="M2995 4088 c-13 -36 -35 -115 -35 -127 0 -25 16 1 29 47 14 50 20 48
42 -15 l15 -46 44 39 43 39 -8 -40 c-11 -57 -11 -69 0 -75 9 -5 42 95 44 133
1 27 -22 20 -59 -18 -19 -19 -37 -35 -41 -35 -5 0 -16 25 -25 55 -17 52 -39
71 -49 43z"/>
<path d="M3553 4058 c209 -146 273 -201 396 -334 210 -229 361 -528 433 -854
20 -93 22 -133 23 -345 0 -224 -2 -248 -27 -365 -39 -176 -80 -295 -154 -445
-176 -358 -463 -640 -829 -815 -115 -56 -296 -120 -380 -136 -22 -4 -35 -9
-28 -11 18 -6 189 42 284 81 280 114 422 207 630 415 247 247 414 555 487 901
148 690 -137 1421 -714 1835 -43 32 -92 63 -109 71 -18 9 -23 9 -12 2z"/>
<path d="M1963 3977 c-5 -7 -8 -18 -7 -24 1 -7 2 -42 3 -78 0 -36 5 -65 11
-65 6 0 10 11 10 24 0 19 8 27 36 36 26 9 39 9 47 1 15 -15 27 -14 27 2 0 7
-27 36 -59 64 -43 38 -61 49 -68 40z m40 -51 c22 -17 22 -33 -2 -45 -23 -13
-31 -5 -31 31 0 31 6 34 33 14z"/>
<path d="M1444 3891 c-308 -262 -512 -612 -601 -1031 -24 -113 -27 -145 -27
-345 0 -203 2 -230 27 -346 28 -130 72 -273 100 -325 23 -42 20 -27 -8 47 -77
194 -123 491 -111 704 32 532 257 981 661 1322 28 23 48 42 45 42 -3 1 -41
-30 -86 -68z"/>
<path d="M3320 3935 c-34 -37 -33 -90 4 -121 38 -33 80 -31 117 5 36 36 37 70
3 110 -34 41 -89 43 -124 6z m98 -1 c28 -19 29 -63 1 -98 -23 -30 -54 -33 -81
-9 -33 29 -20 84 27 111 26 15 27 15 53 -4z"/>
<path d="M1740 3854 c0 -3 14 -24 31 -46 17 -21 29 -41 26 -44 -3 -3 -35 3
-72 14 -96 29 -96 14 2 -117 2 -2 6 -2 9 2 4 3 -8 25 -25 48 -17 24 -29 44
-27 46 1 2 33 -6 71 -18 92 -28 100 -17 44 60 -39 54 -59 72 -59 55z"/>
<path d="M3610 3775 c-11 -13 -10 -22 3 -51 21 -43 21 -63 2 -71 -18 -6 -55
23 -55 44 0 7 -4 13 -10 13 -25 0 15 -68 44 -76 60 -15 83 24 51 86 -9 17 -13
35 -10 40 12 19 45 10 59 -17 9 -16 15 -21 16 -13 1 49 -71 80 -100 45z"/>
<path d="M1500 3640 c0 -20 104 -109 115 -99 7 7 -8 27 -45 59 -54 50 -70 59
-70 40z"/>
<path d="M1365 3478 c-21 -12 -38 -31 -55 -60 -8 -14 1 -25 52 -62 42 -30 66
-41 73 -35 7 7 2 16 -15 29 -20 15 -22 20 -11 34 8 10 29 16 52 16 22 0 39 5
39 10 0 6 -15 10 -34 10 -28 0 -35 4 -38 21 -4 32 -38 51 -63 37z m39 -40 c8
-13 8 -23 0 -35 -15 -24 -26 -25 -54 -4 -24 19 -24 20 -5 41 21 24 43 23 59
-2z"/>
<path d="M2263 3249 c-132 -25 -213 -104 -213 -205 0 -98 63 -143 295 -209 72
-21 138 -42 148 -47 15 -8 17 -26 17 -162 l0 -153 -41 -12 c-61 -18 -180 -16
-223 4 -50 24 -105 84 -141 154 l-30 60 -40 -33 -39 -34 28 -41 c77 -111 219
-171 370 -157 38 4 80 9 93 12 l24 6 -3 -208 c-2 -115 -7 -217 -12 -226 -7
-16 -2 -18 52 -18 l61 0 -15 28 c-10 19 -14 63 -14 155 l0 127 115 2 c63 0
121 1 128 2 6 1 42 -44 79 -99 82 -121 108 -168 108 -195 0 -18 6 -20 61 -20
l62 0 -44 48 c-50 53 -184 255 -179 269 2 4 27 14 54 21 179 44 264 162 221
307 -25 87 -98 154 -200 185 -22 7 -132 15 -245 19 -204 7 -206 7 -350 50
-229 68 -280 101 -280 181 0 100 81 161 226 168 72 4 89 1 137 -21 33 -15 65
-39 83 -62 l28 -37 28 33 c26 31 27 35 11 46 -29 22 -119 52 -185 63 -72 11
-115 11 -175 -1z m717 -482 c94 -42 140 -111 140 -207 0 -82 -42 -146 -120
-185 -64 -33 -134 -46 -277 -52 l-143 -6 1 69 0 69 41 30 c101 74 120 223 35
284 -11 8 -15 16 -9 20 6 3 70 5 144 5 119 -2 139 -4 188 -27z m-350 -114 c0
-34 -24 -98 -41 -109 -5 -3 -9 41 -9 98 l1 103 24 -28 c17 -19 25 -40 25 -64z"/>
<path d="M1212 3223 c-12 -5 -57 -82 -50 -88 10 -8 129 -65 138 -65 14 0 41
70 38 99 -4 32 -32 50 -56 34 -15 -9 -21 -7 -30 8 -12 20 -18 21 -40 12z m27
-37 c9 -11 10 -20 1 -35 -9 -17 -15 -19 -30 -11 -23 12 -26 30 -8 48 16 16 23
15 37 -2z m74 -45 c-2 -41 -4 -44 -37 -32 -30 12 -33 27 -9 53 26 29 48 18 46
-21z"/>
<path d="M3970 3145 c-16 -19 -6 -45 19 -45 18 0 32 19 30 43 0 7 -4 2 -9 -10
-9 -22 -40 -23 -40 -2 0 13 18 11 23 -3 3 -8 6 -7 6 4 1 24 -14 31 -29 13z"/>
<path d="M1175 2926 c-88 -14 -102 -22 -81 -45 26 -29 126 -94 133 -87 4 3 -2
12 -12 20 -26 19 -13 79 20 94 23 10 36 34 18 31 -5 -1 -39 -7 -78 -13z m15
-40 c0 -8 -3 -21 -6 -30 -5 -14 -10 -13 -37 6 l-31 22 24 7 c40 11 50 10 50
-5z"/>
<path d="M4170 2725 c0 -34 -1 -35 -42 -35 -42 0 -78 -13 -67 -25 4 -3 32 -3
63 1 l56 7 0 43 c0 24 -2 44 -5 44 -3 0 -5 -16 -5 -35z"/>
<path d="M1120 2628 c-33 -56 -40 -62 -58 -44 -13 13 -13 20 -4 42 10 20 10
25 0 22 -17 -6 -22 -76 -7 -94 19 -23 49 -16 67 17 30 53 37 60 55 53 19 -7
24 -58 7 -69 -5 -3 -10 -12 -10 -18 1 -21 40 35 40 57 0 30 -27 66 -51 66 -11
0 -27 -13 -39 -32z"/>
<path d="M4113 2523 c-29 -9 -53 -21 -53 -27 0 -13 109 -70 118 -62 3 3 -3 8
-12 12 -20 8 -22 60 -1 68 15 5 21 27 8 25 -5 0 -32 -8 -60 -16z m27 -43 c0
-17 -3 -18 -25 -8 -19 8 -22 14 -13 20 22 14 38 9 38 -12z"/>
<path d="M4042 2308 c-5 -7 -13 -27 -16 -44 -7 -31 -7 -31 50 -43 32 -6 60 -9
63 -5 5 5 -13 20 -34 27 -13 5 13 37 31 37 14 0 29 18 21 26 -3 3 -14 1 -25
-5 -15 -8 -23 -7 -32 4 -15 18 -44 19 -58 3z m46 -40 c3 -22 0 -25 -22 -21
-28 6 -33 22 -14 41 18 18 33 9 36 -20z"/>
<path d="M3976 2088 c-23 -33 -19 -64 11 -88 48 -38 103 -8 103 56 0 24 -5 33
-22 37 -23 6 -38 -7 -37 -33 0 -10 2 -11 6 -2 2 6 14 12 25 12 26 0 21 -37 -7
-56 -46 -31 -97 35 -59 77 9 10 12 19 6 19 -6 0 -18 -10 -26 -22z"/>
<path d="M1232 1928 c-17 -17 -15 -35 4 -42 26 -10 29 -7 8 9 -18 14 -18 14 2
9 26 -7 43 14 23 27 -18 12 -23 11 -37 -3z m28 -8 c0 -5 -2 -10 -4 -10 -3 0
-8 5 -11 10 -3 6 -1 10 4 10 6 0 11 -4 11 -10z"/>
<path d="M3876 1871 c-9 -16 -16 -32 -16 -35 0 -8 85 -56 98 -56 13 0 46 59
38 68 -3 3 -6 1 -6 -4 -1 -21 -28 -44 -44 -38 -13 5 -16 14 -12 33 6 23 5 24
-7 9 -27 -34 -57 -15 -37 23 7 11 9 23 7 26 -3 3 -13 -9 -21 -26z"/>
<path d="M960 1806 c0 -4 29 -65 65 -135 220 -427 614 -750 1084 -887 165 -48
284 -66 471 -68 96 -2 139 -2 95 0 -367 15 -587 66 -860 199 -205 100 -396
247 -539 415 -137 161 -171 210 -261 381 -30 57 -55 100 -55 95z"/>
<path d="M3784 1727 c-6 -7 -19 -26 -30 -42 -17 -27 -17 -28 -1 -16 16 12 23
10 62 -18 24 -17 46 -27 49 -23 3 5 -13 22 -34 38 -32 23 -39 34 -35 52 6 25
4 26 -11 9z"/>
<path d="M1456 1541 c-40 -41 -45 -55 -16 -46 11 3 30 -1 44 -10 19 -13 29
-14 45 -5 25 13 27 32 5 65 -24 37 -39 36 -78 -4z m69 -11 c12 -37 -20 -55
-45 -25 -10 12 -10 18 0 30 17 21 37 19 45 -5z"/>
<path d="M3683 1542 c15 -15 27 -31 27 -34 0 -3 -24 -1 -52 3 -29 5 -56 5 -60
1 -4 -4 12 -28 37 -52 49 -48 63 -45 18 3 l-28 30 56 -7 c31 -3 59 -3 63 1 7
8 -63 83 -78 83 -5 0 2 -13 17 -28z"/>
<path d="M1640 1420 c-12 -7 -12 -14 -2 -43 7 -18 12 -39 12 -45 0 -18 -38
-14 -49 6 -6 9 -11 12 -11 6 0 -15 34 -44 52 -44 31 0 41 26 23 60 -23 45 -4
67 29 34 9 -8 16 -11 16 -5 0 9 -38 41 -50 41 -3 0 -12 -4 -20 -10z"/>
<path d="M3512 1374 c35 -49 46 -59 55 -50 8 8 -60 95 -75 96 -8 0 0 -18 20
-46z"/>
<path d="M1807 1297 c-53 -87 -54 -87 -38 -87 13 0 63 88 58 103 -2 6 -11 -1
-20 -16z"/>
<path d="M3221 1183 c1 -38 4 -59 6 -48 5 25 56 48 72 32 6 -6 14 -8 18 -4 9
9 -67 87 -84 87 -10 0 -13 -18 -12 -67z m38 0 c-19 -22 -29 -15 -29 19 0 30 0
31 20 13 15 -14 17 -21 9 -32z"/>
<path d="M1932 1217 c-12 -13 -22 -33 -22 -45 0 -31 35 -62 68 -61 l27 1 -29
7 c-16 3 -33 13 -39 22 -15 24 0 68 28 79 29 11 32 20 7 20 -10 0 -28 -10 -40
-23z"/>
<path d="M2000 1226 c0 -2 7 -9 15 -16 13 -11 14 -10 9 4 -5 14 -24 23 -24 12z"/>
<path d="M3050 1183 c0 -19 35 -113 42 -113 11 0 10 6 -9 67 -9 29 -20 53 -25
53 -4 0 -8 -3 -8 -7z"/>
<path d="M2170 1158 c-30 -11 -40 -25 -40 -59 0 -55 83 -82 114 -37 39 56 -10
120 -74 96z m62 -33 c9 -19 8 -29 -6 -50 -23 -34 -63 -34 -72 1 -16 62 52 105
78 49z"/>
<path d="M2862 1140 c-56 -23 -45 -112 15 -118 44 -4 75 14 71 41 -3 22 -48
39 -48 18 0 -6 6 -10 13 -8 6 1 12 -7 12 -18 0 -24 -38 -33 -61 -15 -21 18
-17 66 8 90 24 22 23 23 -10 10z"/>
<path d="M2377 1063 c-3 -32 -5 -58 -4 -59 1 -1 22 -4 47 -7 43 -6 43 -6 13 5
-32 10 -33 13 -33 64 0 71 -16 69 -23 -3z"/>
<path d="M2597 1092 c-32 -35 -12 -102 29 -102 10 0 9 5 -6 20 -37 37 -21 90
27 90 16 0 27 -8 33 -26 14 -35 13 -41 -10 -64 -14 -14 -16 -20 -7 -20 21 0
47 34 47 62 0 52 -78 79 -113 40z"/>
<path d="M2845 734 l-80 -13 71 5 c39 3 84 9 100 14 41 12 4 10 -91 -6z"/>
</g>
</svg>
